<?xml version="1.0" encoding="UTF-8" standalone="no"?>
<!DOCTYPE svg PUBLIC "-//W3C//DTD SVG 1.1//EN" "http://www.w3.org/Graphics/SVG/1.1/DTD/svg11.dtd">
<svg version="1.1" xmlns="http://www.w3.org/2000/svg" xmlns:xlink="http://www.w3.org/1999/xlink" preserveAspectRatio="xMidYMid meet" viewBox="857.1224207116722 271.042768626266 2000.0760973018757 1995.085094689236" width="64" height="64"><defs><path d="M2504.25 831.46C2206.8 533.81 2041.56 368.46 2008.51 335.38C1922.72 249.6 1782.57 249.6 1697.11 335.38C1647.57 384.89 1251.24 780.96 1201.7 830.47C1173.21 858.96 1173.21 905.78 1201.7 934.27C1211.72 944.29 1261.81 994.39 1351.99 1084.57C1411.91 1139.97 1445.2 1170.75 1451.86 1176.9C1481.66 1204.41 1526.84 1204.41 1556.64 1176.9C1576.65 1158.4 1736.7 1010.4 1756.71 991.9C1811.72 941.15 1896.2 941.15 1950.88 991.9C1970.88 1010.4 2130.94 1158.4 2150.94 1176.9C2180.41 1204.41 2225.93 1204.41 2255.4 1176.9C2262.05 1170.75 2295.34 1139.97 2355.27 1084.57C2444.66 995.18 2494.32 945.51 2504.25 935.58C2533.06 906.77 2533.06 860.27 2504.25 831.46" id="c8dsQe165"></path><radialGradient id="gradientc5XPcrast9" gradientUnits="userSpaceOnUse" cx="1853.1" cy="271.04" dx="1853.1" dy="1197.53" r="926.49"><stop style="stop-color: #8377ff;stop-opacity: 1" offset="0%"></stop><stop style="stop-color: #766cfc;stop-opacity: 1" offset="100%"></stop></radialGradient><radialGradient id="gradientb1geZsUmEP" gradientUnits="userSpaceOnUse" cx="1853.1" cy="271.04" dx="1853.1" dy="1197.53" r="926.49"><stop style="stop-color: #61dafb;stop-opacity: 1" offset="0%"></stop><stop style="stop-color: #4eaec9;stop-opacity: 1" offset="100%"></stop></radialGradient><path d="M924.63 1427.49C1392.55 1892.37 1652.51 2150.64 1704.5 2202.29C1790.57 2287.8 1930.71 2287.35 2015.89 2201.28C2093.37 2123.29 2713.21 1499.39 2790.7 1421.41C2925.16 1286.06 2830.07 1246.75 2730.88 1153.43C2718.66 1141.91 2620.92 1049.76 2608.7 1038.24C2579.14 1010.5 2533.62 1010.98 2503.92 1038.58C2483.97 1057.15 2324.4 1205.67 2304.46 1224.23C2249.61 1275.17 2165.13 1275.44 2110.29 1224.87C2090.22 1206.43 1929.69 1058.95 1909.62 1040.52C1880.06 1013.11 1834.55 1013.26 1805.17 1040.86C1785.22 1059.42 1625.65 1207.95 1605.7 1226.51C1550.86 1277.45 1466.38 1277.72 1411.53 1227.15C1391.47 1208.71 1230.93 1061.23 1210.87 1042.8C1180.98 1015.39 1135.79 1015.54 1106.09 1043.14C1094.92 1053.52 1005.6 1136.59 994.44 1146.97C891.94 1242.92 783.37 1287.15 924.63 1427.49" id="a4H1bFOuJq"></path><radialGradient id="gradienteFbcLBcsJ" gradientUnits="userSpaceOnUse" cx="1856.22" cy="1019.94" dx="1860.28" dy="2266.13" r="1246.19"><stop style="stop-color: #8377ff;stop-opacity: 1" offset="0%"></stop><stop style="stop-color: #766cfc;stop-opacity: 1" offset="100%"></stop></radialGradient></defs><g><g><g><use xlink:href="#c8dsQe165" opacity="1" fill="url(#gradientc5XPcrast9)"></use><use xlink:href="#c8dsQe165" opacity="1" fill="url(#gradientb1geZsUmEP)"></use><g><use xlink:href="#c8dsQe165" opacity="1" fill-opacity="0" stroke="#000000" stroke-width="1" stroke-opacity="0"></use></g></g><g><use xlink:href="#a4H1bFOuJq" opacity="1" fill="url(#gradienteFbcLBcsJ)"></use><g><use xlink:href="#a4H1bFOuJq" opacity="1" fill-opacity="0" stroke="#000000" stroke-width="1" stroke-opacity="0"></use></g></g></g></g></svg>